<svg width="183" height="171" viewBox="0 0 183 171" fill="none" xmlns="http://www.w3.org/2000/svg">
<g clip-path="url(#clip0_134_97)">
<rect width="182.3" height="171" fill="#424242"/>
<path d="M-1.52588e-05 171L182.3 1.49493e-05L6.78345e-07 0L-1.52588e-05 171Z" fill="#424242"/>
<path d="M364.599 171C364.599 265.441 282.981 342 182.3 342C81.6183 342 0 265.441 0 171C0 76.5593 81.6183 0 182.3 0C282.981 0 364.599 76.5593 364.599 171ZM91.1498 171C91.1498 218.22 131.959 256.5 182.3 256.5C232.64 256.5 273.449 218.22 273.449 171C273.449 123.78 232.64 85.5 182.3 85.5C131.959 85.5 91.1498 123.78 91.1498 171Z" fill="#EFE94B"/>
</g>
<defs>
<clipPath id="clip0_134_97">
<rect width="182.3" height="171" fill="white"/>
</clipPath>
</defs>
</svg>
