<svg width="181" height="171" viewBox="0 0 181 171" fill="none" xmlns="http://www.w3.org/2000/svg">
<g clip-path="url(#clip0_181_14)">
<rect width="181" height="171" fill="#424242"/>
<path d="M7.62939e-05 171L181 1.49493e-05L9.21175e-05 0L7.62939e-05 171Z" fill="#424242"/>
<path d="M362 171C362 265.441 280.964 342 181 342C81.0366 342 9.15527e-05 265.441 9.15527e-05 171C9.15527e-05 76.5593 81.0366 0 181 0C280.964 0 362 76.5593 362 171ZM90.5001 171C90.5001 218.22 131.018 256.5 181 256.5C230.982 256.5 271.5 218.22 271.5 171C271.5 123.78 230.982 85.5 181 85.5C131.018 85.5 90.5001 123.78 90.5001 171Z" fill="#EFE94B"/>
</g>
<defs>
<clipPath id="clip0_181_14">
<rect width="181" height="171" fill="white"/>
</clipPath>
</defs>
</svg>
