<svg width="182" height="163" viewBox="0 0 182 163" fill="none" xmlns="http://www.w3.org/2000/svg">
<g clip-path="url(#clip0_134_99)">
<rect width="181.295" height="163" transform="matrix(-1 0 0 -1 182 163)" fill="#424242"/>
<path d="M182 0L0.704834 163L182 163L182 0Z" fill="#424242"/>
<path d="M-180.59 0C-180.59 -90.0224 -99.4217 -163 0.704849 -163C100.831 -163 182 -90.0224 182 0C182 90.0224 100.831 163 0.704849 163C-99.4217 163 -180.59 90.0224 -180.59 0ZM91.3524 0C91.3524 -45.0112 50.7681 -81.5 0.704849 -81.5C-49.3584 -81.5 -89.9427 -45.0112 -89.9427 0C-89.9427 45.0112 -49.3584 81.5 0.704849 81.5C50.7681 81.5 91.3524 45.0112 91.3524 0Z" fill="#EFE94B"/>
</g>
<defs>
<clipPath id="clip0_134_99">
<rect width="181.295" height="163" fill="white" transform="matrix(-1 0 0 -1 182 163)"/>
</clipPath>
</defs>
</svg>
