<svg width="181" height="171" viewBox="0 0 181 171" fill="none" xmlns="http://www.w3.org/2000/svg">
<g clip-path="url(#clip0_129_4991)">
<rect width="180.7" height="171" transform="translate(0.299561)" fill="#EFE94B"/>
<path d="M0.299561 171L181 1.49493e-05L0.299576 0L0.299561 171Z" fill="#424242"/>
<path d="M181 171C181 265.441 100.098 342 0.299561 342C-99.4985 342 -180.401 265.441 -180.401 171C-180.401 76.5593 -99.4985 0 0.299561 0C100.098 0 181 76.5593 181 171ZM-90.0507 171C-90.0507 218.22 -49.5995 256.5 0.299561 256.5C50.1986 256.5 90.6498 218.22 90.6498 171C90.6498 123.78 50.1986 85.5 0.299561 85.5C-49.5995 85.5 -90.0507 123.78 -90.0507 171Z" fill="#F9F9F9"/>
</g>
<defs>
<clipPath id="clip0_129_4991">
<rect width="180.7" height="171" fill="white" transform="translate(0.299561)"/>
</clipPath>
</defs>
</svg>
