<svg width="180" height="163" viewBox="0 0 180 163" fill="none" xmlns="http://www.w3.org/2000/svg">
<g clip-path="url(#clip0_134_100)">
<rect width="179.705" height="163" transform="matrix(-1 0 0 -1 179.705 163)" fill="#EFE94B"/>
<path d="M179.705 0L-3.05176e-05 163L179.705 163L179.705 0Z" fill="#424242"/>
<path d="M-3.05176e-05 0C-3.05176e-05 -90.0224 80.4566 -163 179.705 -163C278.953 -163 359.41 -90.0224 359.41 0C359.41 90.0224 278.953 163 179.705 163C80.4566 163 -3.05176e-05 90.0224 -3.05176e-05 0ZM269.557 0C269.557 -45.0112 229.329 -81.5 179.705 -81.5C130.081 -81.5 89.8524 -45.0112 89.8524 0C89.8524 45.0112 130.081 81.5 179.705 81.5C229.329 81.5 269.557 45.0112 269.557 0Z" fill="#F9F9F9"/>
</g>
<defs>
<clipPath id="clip0_134_100">
<rect width="179.705" height="163" fill="white" transform="matrix(-1 0 0 -1 179.705 163)"/>
</clipPath>
</defs>
</svg>
